# Blender 4.3.2
# www.blender.org
mtllib arm1.mtl
o arm1
v -0.100000 -0.034162 0.090973
v -0.100000 -0.030633 -0.108996
v 0.100000 -0.030633 -0.108996
v 0.100000 -0.034162 0.090973
v -0.100000 0.865697 0.106858
v -0.100000 0.869227 -0.093110
v 0.100000 0.869227 -0.093110
v 0.100000 0.865697 0.106858
vn -0.0000 -0.9998 -0.0176
vn 1.0000 -0.0000 -0.0000
vn -0.0000 -0.0177 0.9998
vn -1.0000 -0.0000 -0.0000
vn -0.0000 0.0177 -0.9998
s 0
f 1//1 2//1 3//1
f 1//1 3//1 4//1
f 5//1 6//1 7//1
f 5//1 7//1 8//1
f 1//2 2//2 6//2
f 1//2 6//2 5//2
f 2//3 3//3 7//3
f 2//3 7//3 6//3
f 3//4 4//4 8//4
f 3//4 8//4 7//4
f 4//5 1//5 5//5
f 4//5 5//5 8//5
