# Blender 4.3.2
# www.blender.org
mtllib arm2.mtl
o arm2
v 0.017911 -0.030052 -0.092705
v 0.087903 -0.031219 -0.062708
v 0.117890 -0.032624 0.007283
v 0.087881 -0.033435 0.077274
v 0.017879 -0.033217 0.107269
v -0.052113 -0.032050 0.077274
v -0.082100 -0.030646 0.007283
v -0.052091 -0.029834 -0.062708
v 0.027800 0.969774 -0.076877
v 0.097792 0.968606 -0.046881
v 0.127779 0.967202 0.023110
v 0.097770 0.966390 0.093101
v 0.027769 0.966608 0.123098
v -0.042223 0.967775 0.093101
v -0.072210 0.969180 0.023110
v -0.042201 0.969991 -0.046881
vn -0.0099 -0.9998 -0.0158
vn 0.0099 0.9998 0.0158
vn -0.3940 -0.0107 0.9190
vn -0.9192 0.0029 0.3939
vn -0.9190 0.0153 -0.3939
vn -0.3937 0.0184 -0.9190
vn -0.3938 0.0184 -0.9190
vn 0.3940 0.0107 -0.9190
vn 0.9192 -0.0029 -0.3939
vn 0.9190 -0.0153 0.3939
vn 0.3938 -0.0184 0.9190
s 0
f 1//1 2//1 3//1
f 1//1 3//1 4//1
f 1//1 4//1 5//1
f 1//1 5//1 6//1
f 1//1 6//1 7//1
f 1//1 7//1 8//1
f 1//2 8//2 2//2
f 9//1 10//1 11//1
f 9//1 11//1 12//1
f 9//1 12//1 13//1
f 9//1 13//1 14//1
f 9//1 14//1 15//1
f 9//1 15//1 16//1
f 9//2 16//2 10//2
f 1//3 2//3 10//3
f 1//3 10//3 9//3
f 2//4 3//4 11//4
f 2//4 11//4 10//4
f 3//5 4//5 12//5
f 3//5 12//5 11//5
f 4//6 5//6 13//6
f 4//7 13//7 12//7
f 5//8 6//8 14//8
f 5//8 14//8 13//8
f 6//9 7//9 15//9
f 6//9 15//9 14//9
f 7//10 8//10 16//10
f 7//10 16//10 15//10
f 8//11 1//11 9//11
f 8//11 9//11 16//11
