# Blender 4.3.2
# www.blender.org
mtllib base.mtl
o base
v -0.500000 0.000000 0.500000
v -0.500000 -0.000000 -0.500000
v 0.500000 -0.000000 -0.500000
v 0.500000 0.000000 0.500000
v -0.250000 0.500000 0.250000
v -0.250000 0.500000 -0.250000
v 0.250000 0.500000 -0.250000
v 0.250000 0.500000 0.250000
vn -0.0000 -1.0000 -0.0000
vn 0.8944 -0.4472 -0.0000
vn -0.0000 -0.4472 0.8944
vn -0.8944 -0.4472 -0.0000
vn -0.0000 -0.4472 -0.8944
s 0
f 1//1 2//1 3//1
f 1//1 3//1 4//1
f 5//1 6//1 7//1
f 5//1 7//1 8//1
f 1//2 2//2 6//2
f 1//2 6//2 5//2
f 2//3 3//3 7//3
f 2//3 7//3 6//3
f 3//4 4//4 8//4
f 3//4 8//4 7//4
f 4//5 1//5 5//5
f 4//5 5//5 8//5
